<?xml version="1.0" standalone="no"?>
<!DOCTYPE svg PUBLIC "-//W3C//DTD SVG 20010904//EN"
 "http://www.w3.org/TR/2001/REC-SVG-20010904/DTD/svg10.dtd">
<svg version="1.0" xmlns="http://www.w3.org/2000/svg"
 width="128.000000pt" height="128.000000pt" viewBox="0 0 128.000000 128.000000"
 preserveAspectRatio="xMidYMid meet">
<metadata>
Created by potrace 1.11, written by Peter Selinger 2001-2013
</metadata>
<g transform="translate(0.000000,128.000000) scale(0.100000,-0.100000)"
fill="#000000" stroke="none">
<path d="M2 643 l-2 -643 81 0 c92 0 88 -12 42 118 -27 77 -36 83 -85 58 -28
-15 -28 -14 -28 15 0 16 5 29 11 29 16 0 41 29 34 40 -11 18 -35 10 -37 -12
-2 -13 -5 215 -8 507 l-5 530 -3 -642z"/>
<path d="M1275 640 c0 -355 1 -500 2 -323 2 178 2 468 0 645 -1 178 -2 33 -2
-322z"/>
<path d="M566 1080 l-80 -28 -50 -82 -50 -81 -3 -102 c-2 -56 -8 -106 -13
-111 -19 -19 -11 -81 18 -127 45 -70 54 -104 39 -150 -11 -35 -15 -39 -44 -39
-47 0 -86 -17 -79 -35 4 -11 -3 -19 -20 -25 -21 -8 -25 -15 -20 -34 3 -14 3
-26 -2 -29 -4 -2 -1 -2 5 -1 7 2 17 -15 24 -39 6 -23 15 -59 21 -80 6 -20 8
-40 5 -44 -4 -3 -7 3 -7 15 0 12 -4 22 -10 22 -5 0 -10 10 -10 23 0 12 -9 30
-20 40 -11 9 -20 12 -20 7 0 -6 6 -13 14 -16 8 -3 15 -13 16 -22 8 -127 11
-142 31 -132 13 7 19 7 19 0 0 -7 89 -10 266 -10 l267 0 -7 58 c-8 71 -36 152
-57 165 -14 9 -14 13 -1 39 8 16 26 34 41 41 65 27 107 92 133 203 10 41 20
61 41 76 15 11 27 28 27 38 0 10 5 22 10 25 6 3 10 17 10 29 0 17 -8 25 -32
32 -28 8 -33 16 -50 74 -31 104 -37 140 -24 139 54 -6 62 27 19 83 -29 37 -31
38 -110 77 -75 37 -193 37 -297 1z m443 -394 c9 -11 7 -15 -9 -19 -15 -4 -20
0 -20 14 0 22 13 25 29 5z m-129 -69 c0 -20 -25 1 -28 24 -2 23 -2 23 13 5 8
-11 15 -24 15 -29z m141 -1 c-6 -14 -17 -26 -26 -26 -18 0 -21 20 -2 21 8 0 8
2 -2 6 -10 4 -8 9 10 19 30 16 32 13 20 -20z"/>
<path d="M160 296 c0 -2 9 -6 20 -9 11 -3 18 -1 14 4 -5 9 -34 13 -34 5z"/>
<path d="M194 265 c-18 -14 -18 -14 9 -15 15 0 27 4 27 9 0 18 -17 20 -36 6z"/>
<path d="M929 124 c11 -15 18 -31 14 -37 -3 -5 -1 -7 4 -4 7 4 19 -12 30 -38
15 -38 22 -45 46 -45 59 0 11 86 -77 137 -33 19 -39 15 -17 -13z"/>
</g>
</svg>
